<svg width="116" height="36" viewBox="0 0 116 36" fill="none" xmlns="http://www.w3.org/2000/svg">
<path d="M46.454 35.1304C43.5903 35.1304 41.4154 32.5536 41.8965 29.7306L46.1872 4.55169C46.5659 2.3293 48.4918 0.703797 50.7462 0.703797C53.6111 0.703797 55.7868 3.28194 55.3052 6.10606L51.0114 31.2844C50.6326 33.5058 48.7074 35.1304 46.454 35.1304ZM83.7677 4.32032C84.0521 2.65179 83.115 0.99229 81.4643 0.617893C79.8898 0.260767 77.995 0 75.8477 0C66.5752 0 60.0443 4.6693 59.9883 11.3614C59.9361 16.3082 64.6513 19.068 68.2106 20.7145C71.8634 22.4025 73.0911 23.4784 73.0735 24.985C73.0501 27.2928 70.1567 28.3466 67.4593 28.3466C63.7038 28.3466 61.7084 27.8248 58.6266 26.54C58.0148 26.2632 57.3066 26.6395 57.1935 27.3014L56.5959 30.799C56.3048 32.5033 57.2168 34.1929 58.896 34.6049C61.0506 35.1334 63.7678 35.5077 66.5532 35.5363C76.4173 35.5363 82.8208 30.9203 82.8936 23.7738C82.9286 19.8574 80.4287 16.8774 75.0148 14.4201C71.735 12.8275 69.7263 11.7648 69.7476 10.1521C69.7476 8.72115 71.4478 7.19098 75.1219 7.19098C78.19 7.14332 80.4132 7.81247 82.1451 8.50994C82.5675 8.7095 83.0637 8.45098 83.1422 7.9905L83.7677 4.32032ZM108.405 0.703165C108.405 0.703222 108.405 0.703269 108.405 0.703269H101.154C98.9082 0.703269 97.227 1.31632 96.2408 3.55821L85.0514 28.8894C83.7582 31.8171 85.902 35.1078 89.1026 35.1078H89.3747C91.0504 35.1078 92.42 34.4174 93.0164 32.8515C93.6076 31.2992 95.2239 29.9352 96.8849 29.9374C98.8849 29.94 101.546 29.9438 103.531 29.9463C105.066 29.9483 106.492 31.4554 106.822 32.9553C107.155 34.4725 108.401 35.1078 109.954 35.1078H111.788C113.951 35.1078 115.558 33.1068 115.092 30.9951L108.405 0.703141C108.405 0.70302 108.405 0.703041 108.405 0.703165ZM96.9008 22.9335C96.9008 22.9336 96.9009 22.9336 96.9009 22.9335C97.386 21.694 98.7241 18.2474 99.6601 15.8351C99.7637 15.5681 101.413 11.2762 101.515 11.0085C101.598 10.7889 102.004 10.5884 102.053 10.8181L102.517 12.9904C102.518 12.9918 102.518 12.9913 102.518 12.9926C102.524 13.0191 103.172 15.9842 103.77 18.7189C104.243 20.8852 102.593 22.9334 100.376 22.9334H96.9009C96.9008 22.9334 96.9008 22.9334 96.9008 22.9335ZM33.0103 0.703269L25.5982 19.6454C25.0752 20.9818 23.1332 20.8157 22.8448 19.4098C20.5734 12.1061 13.1397 16.7623 15.1954 24.1298L16.819 29.9491C17.6644 32.9789 20.4262 35.0731 23.5716 35.0696C26.367 35.0665 28.8928 33.4011 29.9969 30.833L39.0245 9.83509C40.8821 5.51439 37.7134 0.702825 33.0103 0.702743" fill="#0E4595"/>
<path d="M15.2512 0.702026H0.465828C0.266194 0.702026 0.0957845 0.846274 0.0628158 1.04317C0.0274195 1.25456 0.163267 1.45763 0.371149 1.50982C5.21225 2.72529 9.36901 4.62854 12.8008 7.0314C14.1632 7.98536 19.8436 5.23793 19.505 3.60954C18.9371 1.42956 17.2896 0.778876 15.2516 0.702904" fill="#F2AE14"/>
</svg>
